<svg width="34" height="34" viewBox="0 0 34 34" fill="none" xmlns="http://www.w3.org/2000/svg">
<path d="M25.5 10.1435C25.415 10.1293 25.3159 10.1293 25.2309 10.1435C23.2759 10.0727 21.7175 8.47183 21.7175 6.4885C21.7175 4.46267 23.3467 2.8335 25.3725 2.8335C27.3984 2.8335 29.0275 4.47683 29.0275 6.4885C29.0134 8.47183 27.455 10.0727 25.5 10.1435Z" stroke="black" stroke-width="1.5" stroke-linecap="round" stroke-linejoin="round"/>
<path d="M24.0409 20.4571C25.9818 20.7829 28.1209 20.4429 29.6226 19.4371C31.6201 18.1054 31.6201 15.9237 29.6226 14.5921C28.1068 13.5862 25.9392 13.2462 23.9984 13.5862" stroke="black" stroke-width="1.5" stroke-linecap="round" stroke-linejoin="round"/>
<path d="M8.45756 10.1435C8.54256 10.1293 8.64172 10.1293 8.72672 10.1435C10.6817 10.0727 12.2401 8.47183 12.2401 6.4885C12.2401 4.46267 10.6109 2.8335 8.58506 2.8335C6.55922 2.8335 4.93005 4.47683 4.93005 6.4885C4.94422 8.47183 6.50256 10.0727 8.45756 10.1435Z" stroke="black" stroke-width="1.5" stroke-linecap="round" stroke-linejoin="round"/>
<path d="M9.9167 20.4571C7.97587 20.7829 5.83671 20.4429 4.33504 19.4371C2.33754 18.1054 2.33754 15.9237 4.33504 14.5921C5.85087 13.5862 8.01837 13.2462 9.9592 13.5862" stroke="black" stroke-width="1.5" stroke-linecap="round" stroke-linejoin="round"/>
<path d="M17 20.726C16.915 20.7119 16.8159 20.7119 16.7309 20.726C14.7759 20.6552 13.2175 19.0544 13.2175 17.071C13.2175 15.0452 14.8467 13.416 16.8725 13.416C18.8984 13.416 20.5275 15.0594 20.5275 17.071C20.5134 19.0544 18.955 20.6694 17 20.726Z" stroke="black" stroke-width="1.5" stroke-linecap="round" stroke-linejoin="round"/>
<path d="M12.8775 25.1888C10.88 26.5204 10.88 28.7021 12.8775 30.0337C15.1442 31.5496 18.8559 31.5496 21.1225 30.0337C23.12 28.7021 23.12 26.5204 21.1225 25.1888C18.87 23.6871 15.1442 23.6871 12.8775 25.1888Z" stroke="black" stroke-width="1.5" stroke-linecap="round" stroke-linejoin="round"/>
</svg>
