<svg width="37" height="37" viewBox="0 0 37 37" fill="none" xmlns="http://www.w3.org/2000/svg">
<path d="M27.7809 4.64051C28.8138 4.08551 29.8313 3.60759 30.7717 3.23759C31.6813 2.89842 32.56 3.14509 33.115 3.71551C33.7009 4.30134 33.9784 5.18009 33.6084 6.08967C31.2342 12.0097 25.2834 20.0572 20.3038 24.0501L17.2667 26.4859C16.8813 26.7634 16.4959 27.0101 16.0642 27.1797C16.0642 26.9022 16.0488 26.5938 16.0025 26.3009C15.833 25.0059 15.2471 23.8034 14.2142 22.7705C13.1659 21.7222 11.8863 21.1055 10.5759 20.9359C10.2675 20.9205 9.95921 20.8897 9.65088 20.9205C9.82046 20.4426 10.0825 19.9955 10.4063 19.6255L12.8113 16.5884C14.8925 13.983 18.1146 11.1001 21.5371 8.60259" stroke="#75B477" stroke-width="1.5" stroke-linecap="round" stroke-linejoin="round"/>
<path d="M16.0797 27.1642C16.0797 28.8601 15.4322 30.4788 14.2143 31.7121C13.2738 32.6526 11.9943 33.3001 10.468 33.5005L6.67551 33.9167C4.60968 34.148 2.83676 32.3905 3.08343 30.2938L3.49968 26.5013C3.86968 23.1251 6.69093 20.9667 9.68176 20.9051C9.9901 20.8897 10.3138 20.9051 10.6068 20.9205C11.9172 21.0901 13.1968 21.6913 14.2451 22.7551C15.278 23.788 15.8638 24.9905 16.0334 26.2855C16.0488 26.5784 16.0797 26.8713 16.0797 27.1642Z" stroke="#75B477" stroke-width="1.5" stroke-linecap="round" stroke-linejoin="round"/>
<path d="M21.9533 22.308C21.9533 18.2842 18.685 15.0159 14.6613 15.0159" stroke="#75B477" stroke-width="1.5" stroke-linecap="round" stroke-linejoin="round"/>
</svg>
