<svg width="38" height="38" viewBox="0 0 38 38" fill="none" xmlns="http://www.w3.org/2000/svg">
<path d="M34.8333 17.4007V7.39402C34.8333 5.49402 33.2816 4.08485 31.3975 4.24318H31.3025C27.9775 4.52818 22.9266 6.22235 20.1083 7.99569L19.8391 8.16985C19.38 8.45485 18.62 8.45485 18.1608 8.16985L17.765 7.93235C14.9466 6.17485 9.91163 4.49652 6.58663 4.22735C4.70246 4.06902 3.16663 5.49402 3.16663 7.37818V26.5049C3.16663 28.0249 4.40163 29.4499 5.92163 29.6399L6.38079 29.7032C9.81663 30.1624 15.1208 31.904 18.1608 33.5665L18.2241 33.5982C18.6516 33.8357 19.3325 33.8357 19.7441 33.5982C22.7841 31.9199 28.1041 30.1624 31.5558 29.7032L32.0783 29.6399C33.5983 29.4499 34.8333 28.0249 34.8333 26.5049V23.7815" stroke="#8866A2" stroke-width="1.5" stroke-linecap="round" stroke-linejoin="round"/>
<path d="M19 8.69238V32.4424" stroke="#8866A2" stroke-width="1.5" stroke-linecap="round" stroke-linejoin="round"/>
<path d="M12.2709 13.4424H8.70837" stroke="#8866A2" stroke-width="1.5" stroke-linecap="round" stroke-linejoin="round"/>
<path d="M13.4584 18.1924H8.70837" stroke="#8866A2" stroke-width="1.5" stroke-linecap="round" stroke-linejoin="round"/>
</svg>
