<svg width="38" height="38" viewBox="0 0 38 38" fill="none" xmlns="http://www.w3.org/2000/svg">
<path d="M2.69165 12.5399C2.69165 7.66318 5.47831 5.57324 9.65831 5.57324H23.5758C27.1225 5.57324 29.6717 7.0774 30.3525 10.5132C30.4792 11.1307 30.5425 11.7957 30.5425 12.5399V20.6941C30.5425 25.5707 27.7558 27.6607 23.5758 27.6607H9.65831C8.94581 27.6607 8.26498 27.5974 7.63164 27.4549C7.23581 27.3916 6.85577 27.2808 6.50744 27.1541C4.13244 26.2674 2.69165 24.2091 2.69165 20.6941V18.9999" stroke="#8866A2" stroke-width="1.5" stroke-miterlimit="10" stroke-linecap="round" stroke-linejoin="round"/>
<path d="M35.3083 23.7662V25.4445C35.3083 30.3212 32.5216 32.4111 28.3416 32.4111H14.4241C13.2525 32.4111 12.1916 32.2529 11.2733 31.9045C9.38914 31.2079 8.10663 29.767 7.64746 27.4554C8.28079 27.5979 8.96163 27.6611 9.67413 27.6611H23.5916C27.7716 27.6611 30.5583 25.5712 30.5583 20.6945V12.5403C30.5583 11.7961 30.495 11.1312 30.3683 10.5137C33.3925 11.1312 35.3083 13.2528 35.3083 17.2903" stroke="#8866A2" stroke-width="1.5" stroke-miterlimit="10" stroke-linecap="round" stroke-linejoin="round"/>
<path d="M20.8049 16.6248C20.8049 14.3132 18.9365 12.4448 16.6248 12.4448C14.3132 12.4448 12.4448 14.3132 12.4448 16.6248C12.4448 18.9365 14.3132 20.8049 16.6248 20.8049" stroke="#8866A2" stroke-width="1.5" stroke-miterlimit="10" stroke-linecap="round" stroke-linejoin="round"/>
<path d="M7.56824 13.1418V20.1086" stroke="#8866A2" stroke-width="1.5" stroke-miterlimit="10" stroke-linecap="round" stroke-linejoin="round"/>
<path d="M25.6816 13.1418V20.1086" stroke="#8866A2" stroke-width="1.5" stroke-miterlimit="10" stroke-linecap="round" stroke-linejoin="round"/>
</svg>
