<svg width="37" height="37" viewBox="0 0 37 37" fill="none" xmlns="http://www.w3.org/2000/svg">
<path d="M7.70837 13.875V24.6667" stroke="#8866A2" stroke-width="1.5" stroke-linecap="round" stroke-linejoin="round"/>
<path d="M8.09379 13.1041C10.861 13.1041 13.1042 10.8608 13.1042 8.09367C13.1042 5.32649 10.861 3.08325 8.09379 3.08325C5.32661 3.08325 3.08337 5.32649 3.08337 8.09367C3.08337 10.8608 5.32661 13.1041 8.09379 13.1041Z" stroke="#8866A2" stroke-width="1.5" stroke-linecap="round" stroke-linejoin="round"/>
<path d="M7.70837 33.9167C10.2627 33.9167 12.3334 31.8461 12.3334 29.2917C12.3334 26.7374 10.2627 24.6667 7.70837 24.6667C5.15406 24.6667 3.08337 26.7374 3.08337 29.2917C3.08337 31.8461 5.15406 33.9167 7.70837 33.9167Z" stroke="#8866A2" stroke-width="1.5" stroke-linecap="round" stroke-linejoin="round"/>
<path d="M29.2916 33.9167C31.8459 33.9167 33.9166 31.8461 33.9166 29.2917C33.9166 26.7374 31.8459 24.6667 29.2916 24.6667C26.7373 24.6667 24.6666 26.7374 24.6666 29.2917C24.6666 31.8461 26.7373 33.9167 29.2916 33.9167Z" stroke="#8866A2" stroke-width="1.5" stroke-linecap="round" stroke-linejoin="round"/>
<path d="M7.90881 13.875C8.60256 16.5729 11.0692 18.5771 13.983 18.5617L19.2709 18.5462C23.3101 18.5308 26.748 21.1208 28.0121 24.7283" stroke="#8866A2" stroke-width="1.5" stroke-linecap="round" stroke-linejoin="round"/>
</svg>
