<svg width="38" height="38" viewBox="0 0 38 38" fill="none" xmlns="http://www.w3.org/2000/svg">
<path d="M15.6276 8.97758L10.2126 12.2709L7.74258 8.21761C6.84008 6.72927 7.31508 4.76594 8.80342 3.86344C10.2917 2.96094 12.2551 3.43591 13.1576 4.92425L15.6276 8.97758Z" stroke="#E1584C" stroke-width="1.5" stroke-linecap="round" stroke-linejoin="round"/>
<path d="M18.7149 14.5035L13.7116 17.5436C10.7983 19.3169 9.91159 22.8952 11.3208 25.7452L14.5666 32.3636C15.6116 34.5011 18.1449 35.2452 20.1716 33.9943L30.3524 27.8036C32.3949 26.5686 32.8858 23.9877 31.4766 22.0719L27.0908 16.1502C25.1908 13.5852 21.6283 12.7302 18.7149 14.5035Z" stroke="#E1584C" stroke-width="1.5" stroke-linecap="round" stroke-linejoin="round"/>
<path d="M17.0314 8.07175L8.91748 13.0127L12.2114 18.422L20.3254 13.481L17.0314 8.07175Z" stroke="#E1584C" stroke-width="1.5" stroke-linecap="round" stroke-linejoin="round"/>
<path d="M22.6576 26.616L25.2701 30.9068" stroke="#E1584C" stroke-width="1.5" stroke-linecap="round" stroke-linejoin="round"/>
<path d="M18.6041 29.0859L21.2166 33.3768" stroke="#E1584C" stroke-width="1.5" stroke-linecap="round" stroke-linejoin="round"/>
<path d="M26.7108 24.1458L29.3233 28.4366" stroke="#E1584C" stroke-width="1.5" stroke-linecap="round" stroke-linejoin="round"/>
</svg>
