<svg width="37" height="37" viewBox="0 0 37 37" fill="none" xmlns="http://www.w3.org/2000/svg">
<path d="M19.2709 33.9169H6.29003C4.50169 33.9169 3.03711 32.4831 3.03711 30.7256V7.8473C3.03711 3.80813 6.04336 1.97355 9.72794 3.7773L16.5729 7.13813C18.0529 7.86271 19.2709 9.7898 19.2709 11.424V33.9169Z" stroke="#E1584C" stroke-width="1.5" stroke-linecap="round" stroke-linejoin="round"/>
<path d="M33.8703 23.2178V29.0453C33.8703 32.3753 32.3287 33.917 28.9987 33.917H19.2708V16.0645L19.9953 16.2186L26.9328 17.7757L30.0624 18.4695C32.0974 18.9165 33.7624 19.9649 33.8549 22.9249C33.8703 23.0174 33.8703 23.1099 33.8703 23.2178Z" stroke="#E1584C" stroke-width="1.5" stroke-linecap="round" stroke-linejoin="round"/>
<path d="M8.47925 13.875H13.8288" stroke="#E1584C" stroke-width="1.5" stroke-linecap="round" stroke-linejoin="round"/>
<path d="M8.47925 20.0417H13.8288" stroke="#E1584C" stroke-width="1.5" stroke-linecap="round" stroke-linejoin="round"/>
<path d="M26.9329 17.7753V22.7395C26.9329 24.6512 25.3758 26.2083 23.4641 26.2083C21.5524 26.2083 19.9954 24.6512 19.9954 22.7395V16.2183L26.9329 17.7753Z" stroke="#E1584C" stroke-width="1.5" stroke-linecap="round" stroke-linejoin="round"/>
<path d="M33.8549 22.9246C33.7624 24.7437 32.2516 26.2083 30.4016 26.2083C28.4899 26.2083 26.9329 24.6512 26.9329 22.7396V17.7754L30.0624 18.4691C32.0974 18.9162 33.7624 19.9646 33.8549 22.9246Z" stroke="#E1584C" stroke-width="1.5" stroke-linecap="round" stroke-linejoin="round"/>
</svg>
