<svg width="37" height="37" viewBox="0 0 37 37" fill="none" xmlns="http://www.w3.org/2000/svg">
<path d="M3.08337 33.9167H33.9167" stroke="#75B477" stroke-width="1.5" stroke-miterlimit="10" stroke-linecap="round" stroke-linejoin="round"/>
<path d="M23.1404 33.9013L4.64043 33.9321L4.625 10.8996C4.625 9.8667 5.14919 8.91081 5.99711 8.34039L12.1638 4.22417C13.1967 3.53042 14.5533 3.53042 15.5862 4.22417L21.7529 8.34039C22.6162 8.91081 23.125 9.8667 23.125 10.8996L23.1404 33.9013Z" stroke="#75B477" stroke-width="1.5" stroke-miterlimit="10" stroke-linecap="round" stroke-linejoin="round"/>
<path d="M30.8025 33.9321V27.75" stroke="#75B477" stroke-width="1.5" stroke-miterlimit="10" stroke-linecap="round" stroke-linejoin="round"/>
<path d="M30.8333 18.5C29.1375 18.5 27.75 19.8875 27.75 21.5833V24.6667C27.75 26.3625 29.1375 27.75 30.8333 27.75C32.5292 27.75 33.9167 26.3625 33.9167 24.6667V21.5833C33.9167 19.8875 32.5292 18.5 30.8333 18.5Z" stroke="#75B477" stroke-width="1.5" stroke-miterlimit="10" stroke-linecap="round" stroke-linejoin="round"/>
<path d="M4.625 21.5833H23.125" stroke="#75B477" stroke-width="1.5" stroke-miterlimit="10" stroke-linecap="round" stroke-linejoin="round"/>
<path d="M13.875 33.9167V28.1355" stroke="#75B477" stroke-width="1.5" stroke-miterlimit="10" stroke-linecap="round" stroke-linejoin="round"/>
<path d="M13.875 16.1875C15.1522 16.1875 16.1875 15.1522 16.1875 13.875C16.1875 12.5978 15.1522 11.5625 13.875 11.5625C12.5978 11.5625 11.5625 12.5978 11.5625 13.875C11.5625 15.1522 12.5978 16.1875 13.875 16.1875Z" stroke="#75B477" stroke-width="1.5" stroke-miterlimit="10" stroke-linecap="round" stroke-linejoin="round"/>
</svg>
