<svg width="37" height="37" viewBox="0 0 37 37" fill="none" xmlns="http://www.w3.org/2000/svg">
<path d="M29.2453 33.9166H7.66199C3.03699 33.9166 3.03699 31.8353 3.03699 29.2916V27.7499C3.03699 26.902 3.73074 26.2083 4.57865 26.2083H32.3287C33.1766 26.2083 33.8703 26.902 33.8703 27.7499V29.2916C33.8703 31.8353 33.8703 33.9166 29.2453 33.9166Z" stroke="#8866A2" stroke-width="1.5" stroke-linecap="round" stroke-linejoin="round"/>
<path d="M31.9433 20.0416V26.2083H5.04126V20.0416C5.04126 14.1216 9.21918 9.17283 14.7846 7.98575C15.6171 7.80075 16.4804 7.70825 17.3746 7.70825H19.61C20.5042 7.70825 21.3829 7.80075 22.2154 7.98575C27.7808 9.18825 31.9433 14.1216 31.9433 20.0416Z" stroke="#8866A2" stroke-width="1.5" stroke-linecap="round" stroke-linejoin="round"/>
<path d="M22.3542 6.93742C22.3542 7.30742 22.308 7.64658 22.2155 7.98575C21.383 7.80075 20.5042 7.70825 19.61 7.70825H17.3746C16.4805 7.70825 15.6171 7.80075 14.7846 7.98575C14.6921 7.64658 14.6459 7.30742 14.6459 6.93742C14.6459 4.80992 16.3725 3.08325 18.5 3.08325C20.6275 3.08325 22.3542 4.80992 22.3542 6.93742Z" stroke="#8866A2" stroke-width="1.5" stroke-linecap="round" stroke-linejoin="round"/>
<path d="M23.125 16.9583H13.875" stroke="#8866A2" stroke-width="1.5" stroke-linecap="round" stroke-linejoin="round"/>
</svg>
