<svg width="39" height="39" viewBox="0 0 39 39" fill="none" xmlns="http://www.w3.org/2000/svg">
<path d="M14.625 34.2285C15.8817 35.466 17.5907 36.25 19.501 36.25C21.4108 36.25 23.1194 35.4664 24.376 34.2295C25.6325 35.4664 27.3412 36.2499 29.251 36.25C31.0566 36.25 32.8037 35.5568 34.125 34.4307C34.854 35.05 35.7122 35.5287 36.6328 35.8389C35.2334 37.4635 33.1767 38.5 30.876 38.5H8.125C5.82432 38.4999 3.76654 37.4645 2.36719 35.8398C3.28809 35.5298 4.14576 35.05 4.875 34.4307C6.19634 35.5572 7.94409 36.2499 9.75 36.25C11.66 36.25 13.3684 35.4656 14.625 34.2285ZM8.125 0.5H30.875C35.079 0.500183 38.5 3.92115 38.5 8.125V30.875C38.5 31.2342 38.4717 31.5866 38.4229 31.9326C37.3662 31.7273 36.4233 30.9964 36.1289 30.167H36.1279C35.8293 29.3162 35.0238 28.75 34.126 28.75C33.227 28.7502 32.4238 29.3173 32.124 30.167C31.9535 30.6473 31.5634 31.1079 31.0322 31.4521C30.5029 31.7951 29.8671 32 29.251 32C27.7348 31.9999 26.501 30.7661 26.501 29.25V21.125C26.501 20.6304 26.3298 20.1565 26.0195 19.7783L25.8789 19.623C25.6035 19.3459 23.4882 17.3751 19.501 17.375C15.5191 17.375 13.4041 19.3407 13.124 19.6221C12.7236 20.0205 12.501 20.5608 12.501 21.125V29.25C12.501 30.7662 11.2663 32 9.75 32C9.13405 31.9999 8.49895 31.795 7.96973 31.4521C7.43916 31.1084 7.04883 30.6487 6.87793 30.1689C6.57979 29.3171 5.77353 28.75 4.875 28.75C4.09941 28.7501 3.39568 29.1725 3.02441 29.834H2.98926L2.87109 30.167C2.57819 30.9961 1.63393 31.7275 0.576172 31.9326C0.527366 31.5867 0.5 31.2342 0.5 30.875V8.125C0.5 3.92115 3.92097 0.500184 8.125 0.5ZM19.501 21.625C20.7872 21.625 21.6994 21.951 22.251 22.2324V29.25C22.251 30.7662 21.0172 31.9999 19.501 32C17.9846 32 16.751 30.7662 16.751 29.25V22.2334C17.305 21.9489 18.2166 21.625 19.501 21.625ZM18.7041 6.02637C11.6301 6.44084 6.00212 12.327 6.00195 19.5029C6.00195 20.9534 6.22891 22.3773 6.68164 23.7432L6.88965 24.3252C7.28281 25.3536 8.38416 25.8962 9.4248 25.6162L9.63281 25.5488C10.6596 25.1561 11.2052 24.0521 10.9248 23.0127L10.8574 22.8057C10.4552 21.7514 10.25 20.6403 10.25 19.502C10.25 14.401 14.3998 10.252 19.501 10.252C24.6021 10.252 28.751 14.401 28.751 19.502C28.7509 20.541 28.5801 21.5567 28.2441 22.5264L28.0898 22.9395C27.6544 24.0291 28.1833 25.2654 29.2725 25.7031C29.5338 25.8081 29.8026 25.8545 30.0635 25.8545C30.9057 25.8545 31.7033 25.3519 32.0371 24.5205L32.0381 24.5195C32.6776 22.9198 33.001 21.2303 33.001 19.5C33.001 12.056 26.9452 6.00009 19.501 6H18.6914L18.7041 6.02637Z" stroke="#E1584C"/>
</svg>
