<svg width="37" height="37" viewBox="0 0 37 37" fill="none" xmlns="http://www.w3.org/2000/svg">
<path d="M32.375 9.21908C27.2412 8.71033 22.0767 8.44824 16.9275 8.44824C13.875 8.44824 10.8225 8.60241 7.77 8.91074L4.625 9.21908" stroke="#0A7A9F" stroke-width="1.5" stroke-linecap="round" stroke-linejoin="round"/>
<path d="M13.1042 7.662L13.4434 5.64242C13.6901 4.17784 13.8751 3.08325 16.4805 3.08325H20.5197C23.1251 3.08325 23.3255 4.2395 23.5567 5.65784L23.8959 7.662" stroke="#0A7A9F" stroke-width="1.5" stroke-linecap="round" stroke-linejoin="round"/>
<path d="M23.4487 33.9164H13.5512C9.24999 33.9164 9.11124 32.0356 8.94166 29.6152L7.93958 14.0906" stroke="#0A7A9F" stroke-width="1.5" stroke-linecap="round" stroke-linejoin="round"/>
<path d="M29.0604 14.0906L28.0583 29.6152" stroke="#0A7A9F" stroke-width="1.5" stroke-linecap="round" stroke-linejoin="round"/>
<path d="M15.9253 25.4375H21.059" stroke="#0A7A9F" stroke-width="1.5" stroke-linecap="round" stroke-linejoin="round"/>
<path d="M19.7642 19.2708H22.3542" stroke="#0A7A9F" stroke-width="1.5" stroke-linecap="round" stroke-linejoin="round"/>
<path d="M14.6458 19.2708H15.9253" stroke="#0A7A9F" stroke-width="1.5" stroke-linecap="round" stroke-linejoin="round"/>
</svg>
