<svg xmlns="http://www.w3.org/2000/svg" width="920" height="1120" viewBox="0 0 920 1120" fill="none">
  <defs>
    <linearGradient id="bg" x1="80" y1="40" x2="860" y2="1100" gradientUnits="userSpaceOnUse">
      <stop stop-color="#F8FBFF" />
      <stop offset="1" stop-color="#DEE8F6" />
    </linearGradient>
    <linearGradient id="coat" x1="270" y1="330" x2="650" y2="1030" gradientUnits="userSpaceOnUse">
      <stop stop-color="#FFFFFF" />
      <stop offset="1" stop-color="#EEF2F8" />
    </linearGradient>
    <linearGradient id="screen" x1="380" y1="760" x2="640" y2="930" gradientUnits="userSpaceOnUse">
      <stop stop-color="#1B2437" />
      <stop offset="1" stop-color="#303F5E" />
    </linearGradient>
    <radialGradient id="halo" cx="0" cy="0" r="1" gradientUnits="userSpaceOnUse" gradientTransform="translate(520 250) rotate(90) scale(300 250)">
      <stop stop-color="#BCD2F2" stop-opacity="0.75" />
      <stop offset="1" stop-color="#E6EEF9" stop-opacity="0" />
    </radialGradient>
  </defs>
  <rect width="920" height="1120" rx="56" fill="url(#bg)" />
  <circle cx="520" cy="250" r="300" fill="url(#halo)" />
  <path d="M505 210C573 210 628 265 628 333C628 397 586 450 529 467V530H476V468C418 452 382 398 382 333C382 265 437 210 505 210Z" fill="#D4A27B"/>
  <path d="M358 282C385 211 432 170 505 170C579 170 630 212 656 288C627 269 589 258 544 258H472C427 258 389 268 358 282Z" fill="#6D533E"/>
  <path d="M280 495C307 432 365 392 434 392H575C647 392 706 437 730 503L792 872C802 944 746 1008 674 1008H334C262 1008 206 944 216 872L280 495Z" fill="url(#coat)"/>
  <path d="M445 430H560L522 568H487L445 430Z" fill="#F6F8FB"/>
  <path d="M392 730L638 688L671 872L426 914L392 730Z" fill="url(#screen)"/>
  <rect x="420" y="748" width="186" height="112" rx="10" stroke="#6D88B4" stroke-width="8"/>
  <circle cx="532" cy="889" r="10" fill="#A8B7D0"/>
  <path d="M342 633C370 654 395 688 408 730" stroke="#D9E1EE" stroke-width="18" stroke-linecap="round"/>
  <path d="M648 620C616 642 590 674 574 716" stroke="#D9E1EE" stroke-width="18" stroke-linecap="round"/>
</svg>
